<svg width="246" height="128" viewBox="0 0 246 128" fill="none" xmlns="http://www.w3.org/2000/svg">
<rect x="0.669189" width="245.171" height="128" fill="black"/>
<path d="M66.9533 79.6923C64.5211 79.6923 62.3379 79.1794 60.4038 78.1538C58.4698 77.1282 56.9606 75.7069 55.8764 73.8901C54.7921 72.0439 54.25 69.9633 54.25 67.6483C54.25 65.3333 54.7921 63.2674 55.8764 61.4505C56.9606 59.6337 58.4551 58.2124 60.3599 57.1868C62.294 56.1611 64.4918 55.6483 66.9533 55.6483C69.2683 55.6483 71.2903 56.1172 73.0192 57.0549C74.7775 57.9926 76.0962 59.3406 76.9753 61.0989L72.7555 63.5604C72.0815 62.4762 71.2317 61.6703 70.206 61.1428C69.2097 60.586 68.1108 60.3077 66.9093 60.3077C64.8581 60.3077 63.1584 60.9816 61.8104 62.3296C60.4625 63.6483 59.7885 65.4212 59.7885 67.6483C59.7885 69.8754 60.4478 71.663 61.7665 73.011C63.1145 74.3296 64.8288 74.989 66.9093 74.989C68.1108 74.989 69.2097 74.7252 70.206 74.1978C71.2317 73.641 72.0815 72.8205 72.7555 71.7362L76.9753 74.1978C76.0668 75.956 74.7335 77.3186 72.9753 78.2857C71.2463 79.2234 69.239 79.6923 66.9533 79.6923Z" fill="white"/>
<path d="M90.2524 80C87.7616 80 85.344 79.6923 82.9997 79.0769C80.6554 78.4615 78.7506 77.641 77.2854 76.6154L80.1425 70.1978C81.5198 71.1062 83.1169 71.8388 84.9338 72.3956C86.7506 72.9524 88.5381 73.2308 90.2964 73.2308C93.637 73.2308 95.3074 72.3956 95.3074 70.7253C95.3074 69.8462 94.8239 69.2015 93.8568 68.7912C92.9191 68.3516 91.3953 67.8974 89.2854 67.4286C86.9704 66.9304 85.0363 66.4029 83.4832 65.8462C81.9301 65.2601 80.5968 64.337 79.4832 63.0769C78.3697 61.8168 77.8129 60.1172 77.8129 57.978C77.8129 56.1026 78.3257 54.4176 79.3513 52.9231C80.377 51.3993 81.9008 50.1978 83.9228 49.3187C85.974 48.4396 88.4795 48 91.4392 48C93.4612 48 95.4539 48.2344 97.4173 48.7033C99.3806 49.1429 101.11 49.8022 102.604 50.6813L99.9228 57.1429C96.9924 55.5604 94.1499 54.7692 91.3953 54.7692C89.6664 54.7692 88.4063 55.033 87.6151 55.5604C86.8239 56.0586 86.4283 56.7179 86.4283 57.5385C86.4283 58.359 86.8971 58.9744 87.8349 59.3846C88.7726 59.7949 90.2817 60.2198 92.3623 60.6593C94.7066 61.1575 96.6407 61.6996 98.1645 62.2857C99.7176 62.8425 101.051 63.7509 102.165 65.011C103.307 66.2418 103.879 67.9267 103.879 70.0659C103.879 71.9121 103.366 73.5824 102.34 75.0769C101.315 76.5714 99.7762 77.7729 97.725 78.6813C95.6737 79.5604 93.1828 80 90.2524 80ZM121.745 78.4176C121.042 78.8571 120.177 79.1941 119.152 79.4286C118.155 79.663 117.086 79.7802 115.943 79.7802C112.837 79.7802 110.449 79.0183 108.778 77.4945C107.108 75.9707 106.273 73.6996 106.273 70.6813V62.6813H102.8V56.4396H106.273V50.2418H114.624V56.4396H120.075V62.6813H114.624V70.5934C114.624 71.4432 114.844 72.1172 115.284 72.6154C115.753 73.0842 116.368 73.3187 117.13 73.3187C118.097 73.3187 118.947 73.0696 119.679 72.5714L121.745 78.4176ZM147.955 55.5604V79.3846H139.999V77.011C138.445 78.8571 136.101 79.7802 132.966 79.7802C130.797 79.7802 128.819 79.282 127.032 78.2857C125.273 77.2601 123.867 75.8095 122.812 73.9341C121.786 72.0586 121.273 69.8901 121.273 67.4286C121.273 64.967 121.786 62.8132 122.812 60.967C123.867 59.0916 125.273 57.6557 127.032 56.6593C128.819 55.663 130.797 55.1648 132.966 55.1648C135.779 55.1648 137.991 55.9853 139.603 57.6264V55.5604H147.955ZM134.724 73.1429C136.189 73.1429 137.391 72.6447 138.328 71.6483C139.266 70.6227 139.735 69.2161 139.735 67.4286C139.735 65.6703 139.266 64.293 138.328 63.2967C137.391 62.3004 136.189 61.8022 134.724 61.8022C133.259 61.8022 132.057 62.3004 131.119 63.2967C130.182 64.293 129.713 65.6703 129.713 67.4286C129.713 69.2161 130.182 70.6227 131.119 71.6483C132.057 72.6447 133.259 73.1429 134.724 73.1429ZM167.573 78.4176C166.87 78.8571 166.005 79.1941 164.979 79.4286C163.983 79.663 162.913 79.7802 161.771 79.7802C158.664 79.7802 156.276 79.0183 154.606 77.4945C152.935 75.9707 152.1 73.6996 152.1 70.6813V62.6813H148.628V56.4396H152.1V50.2418H160.452V56.4396H165.902V62.6813H160.452V70.5934C160.452 71.4432 160.672 72.1172 161.111 72.6154C161.58 73.0842 162.196 73.3187 162.957 73.3187C163.924 73.3187 164.774 73.0696 165.507 72.5714L167.573 78.4176ZM192.26 67.5165C192.26 67.5751 192.216 68.2637 192.128 69.5824H174.809C175.161 70.8132 175.835 71.7656 176.831 72.4396C177.857 73.0842 179.132 73.4066 180.655 73.4066C181.798 73.4066 182.78 73.2454 183.6 72.9231C184.45 72.6007 185.3 72.0733 186.15 71.3407L190.545 75.9121C188.23 78.4908 184.846 79.7802 180.392 79.7802C177.608 79.7802 175.161 79.2527 173.051 78.1978C170.942 77.1429 169.301 75.6777 168.128 73.8022C166.986 71.9267 166.414 69.8022 166.414 67.4286C166.414 65.0842 166.971 62.989 168.084 61.1429C169.227 59.2674 170.795 57.8022 172.788 56.7473C174.78 55.6923 177.022 55.1648 179.512 55.1648C181.886 55.1648 184.04 55.663 185.974 56.6593C187.908 57.6264 189.432 59.0476 190.545 60.9231C191.688 62.7692 192.26 64.967 192.26 67.5165ZM179.556 61.0989C178.267 61.0989 177.183 61.4652 176.304 62.1978C175.454 62.9304 174.912 63.9267 174.678 65.1868H184.436C184.201 63.9267 183.644 62.9304 182.765 62.1978C181.915 61.4652 180.846 61.0989 179.556 61.0989Z" fill="white"/>
<path d="M67.537 73.8901C71.0773 73.8901 73.9472 71.0201 73.9472 67.4798C73.9472 63.9395 71.0773 61.0696 67.537 61.0696C63.9967 61.0696 61.1267 63.9395 61.1267 67.4798C61.1267 71.0201 63.9967 73.8901 67.537 73.8901Z" fill="#FF3D00"/>
</svg>
